<svg width="120" height="57" fill="none" xmlns="http://www.w3.org/2000/svg"><g clip-path="url(#clip0_3257_5527)" fill="#1E1E1E"><path d="M59.893 0L43.406 33.096h5.336L60 10.556l11.129 22.54h5.465L59.894 0zm.265 7.15L47.662 31.297h-1.325L60.075 3.586 73.98 31.297h-1.584L60.158 7.15z"/><path d="M77.446 34.535H70.25L59.925 14.358 49.747 34.535h-7.196l-2.158 4.677h12.285l7.247-14.398 7.328 14.398h12.356l-2.163-4.677zm-9.006 3.238L59.931 21.09l-8.125 16.682h-9.255l.78-1.632h7.526l9.227-18.7 9.087 18.892 7.015-.035 1.125 1.474h-8.87zM7.46 46.927H3.568C3.2 50.187 1.99 53.413 0 56.608h3.283l.853-2.562h2.848l.602 2.562h3.323C9.07 53.481 7.79 50.274 7.46 46.927zM4.422 52.62l1.034-4.453 1.097 4.453h-2.13zm6.707-5.693h2.689v7.355h7.154v2.326h-9.843v-9.681z"/><path d="M14.672 53.761v-6.658h6.3v2.54c-1.84-1.026-4.52-1.343-4.022 1.27h3.132v1.994H16.95l.01.854h-2.288zm6.582-6.658h2.633l1.567 3.329 1.462-3.22h2.563l-3.053 4.556 3.053 4.84h-2.77l-1.343-3.36-1.165 3.36h-2.822l3.041-4.84-3.166-4.665z"/><path d="M37.736 50.63h-2.783c-.895-5.853-8.63 1.61 2.038 1.435a.58.58 0 01.579.464c.925 4.812-7.375 5.769-8.377.663h2.848c-.143 2.426 2.806 2.362 3.294.96.211-.607-.264-1.235-.905-1.258-12.227-.44.594-11.172 3.306-2.265zm7.97-2.507c-.575-.6-1.39-.911-2.221-.911h-4.61v9.396h2.566V52.84l2.055-.062c1.121-.034 2.177-.638 2.678-1.641.487-.975.407-2.101-.468-3.014zm-.783 2.088a1.3 1.3 0 01-1.108.591h-2.947v-2.166h2.874c.47 0 .917.228 1.164.626.2.322.211.639.017.95zm13.227 6.397h-2.507v-9.505h2.507l2.65 3.81v-3.81h2.24v9.505h-2.57l.063-2.847-2.728-3.33.345 6.177zm22.268-6.893c-1.055-1.653-2.92-2.606-4.88-2.564l-2.843.06v9.397h3.047c1.944 0 3.772-.997 4.764-2.67.84-1.417.805-2.825-.088-4.223zm-1.448 3.32c-.556.713-1.5 1.01-2.406 1.017l-1.611.01V49.72h1.64c.86 0 1.753.267 2.313.92.68.795.69 1.594.064 2.395zm2.901-5.823h6.498v2.243l-4.22-.82v2.279h3.417v1.992h-3.417V54.9h2.848l1.423-.854v2.562h-6.549v-9.396zm14.399 2.507v-2.507h-1.979c-1.737 0-3.406.794-4.411 2.21-1.493 2.101-.95 4.499.914 6.076a4.973 4.973 0 003.051 1.15l2.426.08v-2.665H93.8c-.81 0-1.61-.28-2.193-.842-.892-.86-.936-1.896.06-2.756.581-.5 1.34-.745 2.108-.745h2.496v-.001zm1.152-2.616h2.374v3.723l1.951-3.614 1.765 1.424-1.993 2.562 3.308 5.41h-2.586l-2.146-3.986-.569.854.177 3.132h-2.281v-9.505zM66.49 56.752h-2.508v-9.505h2.508l2.65 3.81v-3.81h2.24v9.505h-2.57l.062-2.847-2.727-3.329.345 6.176zm38.565-9.417h6.498v2.243l-4.22-.82v2.279h3.416v1.992h-3.416v1.994h2.847l1.424-.854v2.562h-6.549v-9.396zm10.054 9.451h-2.507V47.28h2.507l2.651 3.81v-3.81h2.239v9.506h-2.57l.062-2.848-2.727-3.329.345 6.177zm-63.371-9.875h-3.893c-.369 3.26-1.578 6.486-3.568 9.681h3.283l.854-2.562h2.847l.602 2.563h3.323c-1.837-3.127-3.12-6.335-3.448-9.682zm-3.04 5.695l1.034-4.453 1.097 4.453h-2.13z"/></g><defs><clipPath id="clip0_3257_5527"><path fill="#fff" d="M0 0h120v56.785H0z"/></clipPath></defs></svg>