<svg width="200" height="17" fill="none" xmlns="http://www.w3.org/2000/svg"><path d="M12.435.026h-6.49C5.332 5.46 3.316 10.838 0 16.162h5.47l1.424-4.27h4.745l1.004 4.27h5.538C15.12 10.951 12.983 5.605 12.435.026zM7.369 9.52L9.09 2.097l1.83 7.423H7.37zM18.549.026h4.482v12.258h11.922v3.878H18.55V.026z" fill="#fff"/><path d="M24.453 11.416V.32h10.5v4.233c-3.068-1.71-7.534-2.238-6.703 2.118h5.22v3.322h-5.22l.016 1.423h-3.813zM35.424.32h4.388l2.613 5.548L44.86.5h4.272l-5.089 7.593 5.089 8.068h-4.618l-2.237-5.602-1.942 5.602h-4.704L40.7 8.093 35.424.32z" fill="#fff"/><path d="M62.894 6.196h-4.639c-1.491-9.753-14.384 2.685 3.398 2.393a.966.966 0 01.964.774c1.542 8.02-12.291 9.615-13.96 1.105h4.745c-.238 4.043 4.678 3.937 5.49 1.6.352-1.012-.439-2.059-1.509-2.097-20.378-.735.991-18.62 5.51-3.775zm13.284-4.177c-.959-1-2.317-1.518-3.702-1.518h-7.683v15.66h4.277v-6.28l3.425-.103c1.868-.056 3.629-1.064 4.462-2.735.813-1.625.68-3.502-.78-5.024zM74.873 5.5c-.393.63-1.105.986-1.846.986h-4.913V2.874h4.79c.782 0 1.529.38 1.94 1.044.335.537.353 1.065.03 1.582zm22.045 10.662h-4.18V.32h4.18l4.417 6.35V.32h3.734v15.842h-4.285l.105-4.746-4.546-5.548.575 10.294zM134.03 4.673C132.272 1.919 129.162.33 125.896.4l-4.736.1v15.661h5.078c3.241 0 6.287-1.662 7.94-4.449 1.399-2.363 1.341-4.71-.148-7.04zm-2.414 5.534c-.927 1.19-2.5 1.686-4.009 1.696l-2.685.017V4.68h2.732c1.434 0 2.923.445 3.856 1.535 1.133 1.324 1.148 2.655.106 3.992zm4.837-9.706h10.83v3.738l-7.034-1.365V6.67h5.695v3.32h-5.695v3.323h4.747l2.372-1.423v4.27h-10.915V.502zM160.45 4.68V.5h-3.298c-2.895 0-5.677 1.323-7.353 3.684-2.488 3.501-1.584 7.498 1.524 10.126 1.421 1.202 3.225 1.855 5.085 1.917l4.042.133v-4.442h-4.117c-1.35 0-2.683-.467-3.655-1.404-1.488-1.434-1.56-3.161.1-4.593.968-.835 2.233-1.243 3.512-1.243h4.16zm1.919-4.36h3.957v6.204l3.252-6.023 2.942 2.373-3.322 4.27 5.514 9.018h-4.311l-3.577-6.644-.948 1.423.294 5.22h-3.801V.322zm-51.551 16.082h-4.179V.561h4.179l4.417 6.35V.561h3.734v15.841h-4.285l.104-4.745-4.545-5.548.575 10.293zM175.09.706h10.831v3.737l-7.034-1.365v3.797h5.694v3.323h-5.694v3.32h4.745l2.373-1.422v4.27H175.09V.706zm16.76 15.751h-4.18V.616h4.18l4.417 6.349V.615h3.732v15.842h-4.284l.104-4.747-4.544-5.547.575 10.294zM86.23 0h-6.49c-.614 5.433-2.63 10.81-5.945 16.136h5.47l1.424-4.271h4.745l1.004 4.27h5.538C88.914 10.926 86.777 5.58 86.23 0zm-5.066 9.49l1.722-7.42 1.828 7.42h-3.55z" fill="#fff"/></svg>