<svg width="200" height="17" viewBox="0 0 200 17" fill="none" xmlns="http://www.w3.org/2000/svg">
<path d="M12.4347 0.0263672H5.94566C5.33105 5.46029 3.31575 10.8375 0 16.162H5.47085L6.89396 11.8913H11.6394L12.6431 16.162H18.1812C15.1187 10.9509 12.9834 5.60537 12.4347 0.0263672ZM7.36877 9.51859L9.09127 2.09706L10.9193 9.51859H7.36877Z" fill="white"/>
<path d="M18.5488 0.0263672H23.0305V12.2843H34.9535V16.162H18.5488V0.0263672Z" fill="white"/>
<path d="M24.4531 11.4163V0.320312H34.953V4.55271C31.8852 2.84207 27.4194 2.31451 28.2503 6.67088H33.4705V9.99322H28.2503L28.2661 11.4163H24.4531Z" fill="white"/>
<path d="M35.4238 0.320312H39.8119L42.4246 5.86766L44.8607 0.501004H49.1326L44.0442 8.09399L49.1326 16.1618H44.5151L42.2782 10.5604L40.3355 16.1618H35.6322L40.7008 8.09399L35.4238 0.320312Z" fill="white"/>
<path d="M62.8939 6.19609H58.2553C56.7636 -3.55727 43.8712 8.8814 61.6528 8.5886C62.1158 8.58069 62.5299 8.90778 62.6169 9.3628C64.1588 17.3831 50.326 18.9777 48.6562 10.4681H53.4017C53.1643 14.5105 58.0799 14.405 58.8923 12.0679C59.2445 11.0563 58.4531 10.0091 57.3835 9.97082C37.005 9.23619 58.374 -8.64959 62.8939 6.19609Z" fill="white"/>
<path d="M76.1778 2.01905C75.219 1.01931 73.8605 0.500977 72.4756 0.500977H64.793V16.1618H69.0702V9.88109L72.4954 9.77821C74.363 9.7215 76.1237 8.71385 76.9573 7.04279C77.7698 5.41789 77.6365 3.54107 76.1778 2.01905ZM74.8734 5.49966C74.4804 6.12878 73.7682 6.48489 73.0269 6.48489H68.114V2.8737H72.9043C73.6864 2.8737 74.4329 3.25487 74.8444 3.91828C75.1794 4.45508 75.1966 4.98264 74.8734 5.49966Z" fill="white"/>
<path d="M96.9179 16.1618H92.7383V0.320312H96.9179L101.335 6.67088V0.320312H105.069V16.1618H100.784L100.889 11.4163L96.3429 5.86766L96.9179 16.1618Z" fill="white"/>
<path d="M134.03 4.67295C132.272 1.91906 129.162 0.329772 125.896 0.399674L121.16 0.501231V16.162H126.238C129.479 16.162 132.525 14.5002 134.178 11.7133C135.577 9.34982 135.519 7.00347 134.03 4.67295ZM131.616 10.2071C130.689 11.3968 129.116 11.8927 127.607 11.9032L124.922 11.9204V4.67955H127.654C129.088 4.67955 130.577 5.12534 131.51 6.21476C132.643 7.53895 132.658 8.86973 131.616 10.2071Z" fill="white"/>
<path d="M136.453 0.500977H147.283V4.23878L140.249 2.8737V6.67085H145.944V9.99188H140.249V13.3142H144.996L147.368 11.8911V16.1618H136.453V0.500977Z" fill="white"/>
<path d="M160.45 4.67929V0.500977H157.152C154.257 0.500977 151.475 1.82385 149.799 4.1847C147.311 7.68642 148.215 11.6827 151.323 14.3113C152.744 15.5128 154.548 16.1657 156.408 16.2277L160.45 16.3609V11.9188H156.333C154.983 11.9188 153.65 11.4519 152.678 10.5155C151.19 9.08051 151.118 7.35405 152.778 5.92171C153.746 5.08684 155.011 4.67929 156.29 4.67929H160.45Z" fill="white"/>
<path d="M162.369 0.320312H166.326V6.52448L169.578 0.501004L172.52 2.87373L169.198 7.14437L174.712 16.1618H170.401L166.824 9.51841L165.876 10.9415L166.17 16.1618H162.369V0.320312Z" fill="white"/>
<path d="M110.818 16.402H106.639V0.560547H110.818L115.235 6.91111V0.560547H118.969V16.402H114.684L114.788 11.6566L110.243 6.10921L110.818 16.402Z" fill="white"/>
<path d="M175.09 0.705566H185.921V4.44337L178.887 3.07829V6.87544H184.581V10.1978H178.887V13.5188H183.632L186.005 12.0957V16.3663H175.09V0.705566Z" fill="white"/>
<path d="M191.85 16.4572H187.67V0.615723H191.85L196.267 6.96497V0.615723H199.999V16.4572H195.715L195.819 11.7104L191.275 6.16307L191.85 16.4572Z" fill="white"/>
<path d="M86.2296 0H79.7406C79.126 5.4326 77.1107 10.8098 73.7949 16.1356H79.2658L80.6889 11.8649H85.4343L86.438 16.1356H91.9761C88.9136 10.9246 86.777 5.579 86.2296 0ZM81.1637 9.4909L82.8862 2.06937L84.7142 9.4909H81.1637Z" fill="white"/>
</svg>
