<svg width="120" height="57" viewBox="0 0 120 57" fill="none" xmlns="http://www.w3.org/2000/svg">
<g clip-path="url(#clip0_3027_11106)">
<path d="M59.8932 0L43.4062 33.0958H48.7415L60 10.5558L71.1288 33.0958H76.5938L59.8932 0ZM60.1583 7.14983L47.6621 31.297H46.3374L60.0752 3.5856L73.98 31.297H72.3957L60.1583 7.14983Z" fill="white"/>
<path d="M77.4459 34.5346H70.2509L59.9254 14.3584L49.7471 34.5346H42.5514L40.3926 39.2115H52.6783L59.9254 24.8137L67.2525 39.2115H79.6086L77.4459 34.5346ZM68.4403 37.7728L59.931 21.0912L51.8062 37.7728H42.5514L43.3316 36.141H50.8566L60.0837 17.4415L69.1715 36.3333L76.186 36.2985L77.3113 37.772H68.4403V37.7728Z" fill="white"/>
<path d="M7.46083 46.9268H3.5674C3.19863 50.1863 1.98945 53.4126 0 56.6081H3.28251L4.13638 54.0457H6.98365L7.58586 56.6081H10.9087C9.07122 53.4815 7.79003 50.2742 7.46083 46.9268ZM4.42126 52.6213L5.45476 48.1684L6.55157 52.6213H4.42126Z" fill="white"/>
<path d="M11.1289 46.9268H13.8179V54.2815H20.9717V56.6081H11.1289V46.9268Z" fill="white"/>
<path d="M14.6719 53.7611V47.1035H20.9718V49.643C19.1311 48.6166 16.4516 48.3 16.9502 50.9139H20.0823V52.9073H16.9502L16.9597 53.7611H14.6719Z" fill="white"/>
<path d="M21.2539 47.1035H23.8867L25.4544 50.4319L26.916 47.2119H29.4792L26.4262 51.7677L29.4792 56.6084H26.7087L25.3665 53.2475L24.2009 56.6084H21.3789L24.4201 51.7677L21.2539 47.1035Z" fill="white"/>
<path d="M37.736 50.6291H34.9528C34.0578 44.7771 26.3223 52.2403 36.9913 52.0646C37.2691 52.0598 37.5175 52.2561 37.5698 52.5291C38.4949 57.3413 30.1952 58.298 29.1934 53.1923H32.0406C31.8982 55.6177 34.8475 55.5544 35.335 54.1522C35.5463 53.5452 35.0715 52.9169 34.4297 52.8939C22.2026 52.4531 35.024 41.7217 37.736 50.6291Z" fill="white"/>
<path d="M45.7059 48.1228C45.1306 47.5229 44.3155 47.2119 43.4846 47.2119H38.875V56.6084H41.4413V52.84L43.4965 52.7783C44.617 52.7442 45.6735 52.1396 46.1736 51.137C46.6611 50.1621 46.5811 49.036 45.7059 48.1228ZM44.9233 50.2111C44.6874 50.5886 44.2601 50.8023 43.8154 50.8023H40.8676V48.6356H43.7418C44.2111 48.6356 44.659 48.8643 44.9059 49.2623C45.1069 49.5844 45.1172 49.9009 44.9233 50.2111Z" fill="white"/>
<path d="M58.1504 56.6084H55.6426V47.1035H58.1504L60.8006 50.9139V47.1035H63.0409V56.6084H60.4698L60.5331 53.7611L57.8053 50.4319L58.1504 56.6084Z" fill="white"/>
<path d="M80.4181 49.7147C79.3632 48.0624 77.4972 47.1088 75.5378 47.1507L72.6953 47.2117V56.6081H75.742C77.6863 56.6081 79.5144 55.611 80.5059 53.9389C81.3463 52.5208 81.3115 51.113 80.4181 49.7147ZM78.9699 53.0344C78.4136 53.7482 77.4695 54.0458 76.5642 54.0521L74.953 54.0624V49.7187H76.5927C77.4529 49.7187 78.3463 49.9861 78.9058 50.6398C79.5856 51.4343 79.5951 52.2328 78.9699 53.0344Z" fill="white"/>
<path d="M81.8711 47.2119H88.3689V49.4546L84.1486 48.6356V50.9138H87.5656V52.9065H84.1486V54.8999H86.9967L88.4203 54.046V56.6084H81.8711V47.2119Z" fill="white"/>
<path d="M96.2706 49.7189V47.2119H94.2914C92.5544 47.2119 90.8855 48.0056 89.8797 49.4222C88.3872 51.5232 88.9292 53.921 90.7944 55.4981C91.6467 56.219 92.7293 56.6108 93.8451 56.648L96.2706 56.7279V54.0634H93.8C92.9904 54.0634 92.1904 53.7833 91.6072 53.2214C90.7145 52.3604 90.671 51.3246 91.6673 50.4651C92.2482 49.9642 93.0071 49.7197 93.7747 49.7197H96.2706V49.7189Z" fill="white"/>
<path d="M97.4219 47.1035H99.7959V50.826L101.747 47.2119L103.512 48.6356L101.519 51.1979L104.827 56.6084H102.241L100.095 52.6216L99.5261 53.4762L99.7025 56.6084H97.4219V47.1035Z" fill="white"/>
<path d="M66.4902 56.7519H63.9824V47.2471H66.4902L69.1404 51.0574V47.2471H71.3807V56.7519H68.8096L68.8722 53.9047L66.1452 50.5763L66.4902 56.7519Z" fill="white"/>
<path d="M105.055 47.335H111.553V49.5776L107.333 48.7586V51.0369H110.749V53.0295H107.333V55.0229H110.18L111.604 54.169V56.7314H105.055V47.335Z" fill="white"/>
<path d="M115.109 56.7859H112.602V47.2803H115.109L117.76 51.0906V47.2803H119.999V56.7859H117.429L117.491 53.9379L114.764 50.6095L115.109 56.7859Z" fill="white"/>
<path d="M51.7382 46.9111H47.8447C47.476 50.1707 46.2668 53.397 44.2773 56.5925H47.5599L48.4137 54.0301H51.261L51.8632 56.5925H55.1861C53.3486 53.4659 52.0666 50.2585 51.7382 46.9111ZM48.6986 52.6057L49.7321 48.1528L50.8289 52.6057H48.6986Z" fill="white"/>
</g>
<defs>
<clipPath id="clip0_3027_11106">
<rect width="120" height="56.7855" fill="white"/>
</clipPath>
</defs>
</svg>
